<svg xmlns="http://www.w3.org/2000/svg" xmlns:xlink="http://www.w3.org/1999/xlink" width="500" zoomAndPan="magnify" viewBox="0 0 375 374.999991" height="500" preserveAspectRatio="xMidYMid meet" version="1.0"><defs><g/><clipPath id="aef2f82e99"><path d="M 339 1 L 375 1 L 375 44 L 339 44 Z M 339 1 " clip-rule="nonzero"/></clipPath><clipPath id="de67bf2d2b"><rect x="0" width="375" y="0" height="63"/></clipPath></defs><g transform="matrix(1, 0, 0, 1, 0, 164)"><g clip-path="url(#de67bf2d2b)"><g fill="#05873d" fill-opacity="1"><g transform="translate(0.0235071, 43.157305)"><g><path d="M 1.9375 -30.609375 C 1.9375 -33.035156 2.492188 -35.097656 3.609375 -36.796875 C 4.722656 -38.492188 6.191406 -39.765625 8.015625 -40.609375 C 9.835938 -41.460938 11.820312 -41.890625 13.96875 -41.890625 C 17.25 -41.890625 20.320312 -40.816406 23.1875 -38.671875 L 23.1875 -41.40625 L 28.296875 -41.40625 L 28.296875 -28.96875 L 23.1875 -28.96875 L 23.1875 -31.8125 C 22.0625 -33.4375 20.800781 -34.640625 19.40625 -35.421875 C 18.007812 -36.210938 16.359375 -36.609375 14.453125 -36.609375 C 12.347656 -36.609375 10.664062 -36.125 9.40625 -35.15625 C 8.15625 -34.1875 7.53125 -32.910156 7.53125 -31.328125 C 7.53125 -29.953125 7.921875 -28.859375 8.703125 -28.046875 C 9.492188 -27.242188 10.5 -26.628906 11.71875 -26.203125 C 12.9375 -25.773438 14.738281 -25.28125 17.125 -24.71875 C 19.789062 -24.0625 21.960938 -23.335938 23.640625 -22.546875 C 25.328125 -21.765625 26.695312 -20.707031 27.75 -19.375 C 28.5625 -18.320312 29.195312 -17.113281 29.65625 -15.75 C 30.125 -14.394531 30.359375 -12.96875 30.359375 -11.46875 C 30.359375 -9.164062 29.789062 -7.09375 28.65625 -5.25 C 27.519531 -3.40625 25.960938 -1.957031 23.984375 -0.90625 C 22.003906 0.144531 19.78125 0.671875 17.3125 0.671875 C 14.914062 0.671875 12.9375 0.265625 11.375 -0.546875 C 9.820312 -1.359375 8.421875 -2.3125 7.171875 -3.40625 L 7.171875 0 L 2.0625 0 L 2.0625 -14.9375 L 7.171875 -14.9375 L 7.171875 -11.296875 C 8.503906 -9.023438 9.945312 -7.320312 11.5 -6.1875 C 13.0625 -5.0625 14.816406 -4.5 16.765625 -4.5 C 18.867188 -4.5 20.609375 -5.15625 21.984375 -6.46875 C 23.359375 -7.78125 24.046875 -9.429688 24.046875 -11.421875 C 24.046875 -12.867188 23.660156 -14.03125 22.890625 -14.90625 C 22.117188 -15.78125 21.144531 -16.4375 19.96875 -16.875 C 18.800781 -17.320312 17.1875 -17.8125 15.125 -18.34375 C 12.363281 -19.070312 10.070312 -19.835938 8.25 -20.640625 C 6.4375 -21.453125 4.929688 -22.65625 3.734375 -24.25 C 2.535156 -25.851562 1.9375 -27.972656 1.9375 -30.609375 Z M 1.9375 -30.609375 "/></g></g></g><g fill="#05873d" fill-opacity="1"><g transform="translate(32.259073, 43.157305)"><g><path d="M 2.609375 -20.578125 C 2.609375 -24.828125 3.457031 -28.5625 5.15625 -31.78125 C 6.863281 -35 9.265625 -37.488281 12.359375 -39.25 C 15.453125 -41.007812 19.046875 -41.890625 23.140625 -41.890625 C 26.296875 -41.890625 29.015625 -41.414062 31.296875 -40.46875 C 33.585938 -39.519531 35.398438 -38.539062 36.734375 -37.53125 L 36.734375 -41.234375 L 42.078125 -41.234375 L 42.078125 -27.984375 L 36.734375 -27.984375 C 35.597656 -30.492188 33.828125 -32.53125 31.421875 -34.09375 C 29.015625 -35.65625 26.351562 -36.4375 23.4375 -36.4375 C 20.726562 -36.4375 18.3125 -35.765625 16.1875 -34.421875 C 14.0625 -33.085938 12.398438 -31.226562 11.203125 -28.84375 C 10.003906 -26.457031 9.40625 -23.765625 9.40625 -20.765625 C 9.40625 -17.804688 10.03125 -15.113281 11.28125 -12.6875 C 12.539062 -10.257812 14.253906 -8.359375 16.421875 -6.984375 C 18.585938 -5.609375 21.007812 -4.921875 23.6875 -4.921875 C 25.582031 -4.921875 27.488281 -5.34375 29.40625 -6.1875 C 31.332031 -7.039062 33.054688 -8.359375 34.578125 -10.140625 C 36.097656 -11.921875 37.179688 -14.128906 37.828125 -16.765625 L 43.234375 -13.78125 C 42.015625 -9.25 39.625 -5.707031 36.0625 -3.15625 C 32.5 -0.601562 28.226562 0.671875 23.25 0.671875 C 19.25 0.671875 15.675781 -0.226562 12.53125 -2.03125 C 9.394531 -3.832031 6.957031 -6.34375 5.21875 -9.5625 C 3.476562 -12.78125 2.609375 -16.453125 2.609375 -20.578125 Z M 2.609375 -20.578125 "/></g></g></g><g fill="#05873d" fill-opacity="1"><g transform="translate(78.3966, 43.157305)"><g><path d="M 12.515625 -36.0625 L 12.515625 -24.28125 L 30.546875 -24.28125 L 30.546875 -36.0625 L 25.6875 -36.0625 L 25.6875 -41.234375 L 41.40625 -41.234375 L 41.40625 -36.0625 L 36.734375 -36.0625 L 36.734375 -5.15625 L 41.40625 -5.15625 L 41.40625 0 L 25.6875 0 L 25.6875 -5.15625 L 30.546875 -5.15625 L 30.546875 -19.125 L 12.515625 -19.125 L 12.515625 -5.15625 L 17.359375 -5.15625 L 17.359375 0 L 1.640625 0 L 1.640625 -5.15625 L 6.3125 -5.15625 L 6.3125 -36.0625 L 1.640625 -36.0625 L 1.640625 -41.234375 L 17.359375 -41.234375 L 17.359375 -36.0625 Z M 12.515625 -36.0625 "/></g></g></g><g fill="#05873d" fill-opacity="1"><g transform="translate(121.377351, 43.157305)"><g><path d="M 27.140625 -36.609375 L 38.25 -5.15625 L 42.875 -5.15625 L 42.875 0 L 26.71875 0 L 26.71875 -5.15625 L 31.8125 -5.15625 L 28.78125 -14.515625 L 13.96875 -14.515625 L 10.75 -5.15625 L 15.78125 -5.15625 L 15.78125 0 L -0.484375 0 L -0.484375 -5.15625 L 4.5 -5.15625 L 15.78125 -36.609375 L 10.921875 -36.609375 L 10.921875 -41.234375 L 32 -41.234375 L 32 -36.609375 Z M 27.203125 -19.3125 L 21.734375 -36.609375 L 21.1875 -36.609375 L 15.484375 -19.3125 Z M 27.203125 -19.3125 "/></g></g></g><g fill="#05873d" fill-opacity="1"><g transform="translate(163.751027, 43.157305)"><g><path d="M 30.78125 -28.84375 L 30.78125 -36.0625 L 13.234375 -36.0625 L 13.234375 -23.796875 L 28.53125 -23.796875 L 28.53125 -18.640625 L 13.234375 -18.640625 L 13.234375 -5.15625 L 30.78125 -5.15625 L 30.78125 -12.6875 L 35.890625 -12.6875 L 35.890625 0 L 1.703125 0 L 1.703125 -5.15625 L 7.046875 -5.15625 L 7.046875 -36.0625 L 1.703125 -36.0625 L 1.703125 -41.234375 L 35.890625 -41.234375 L 35.890625 -28.84375 Z M 30.78125 -28.84375 "/></g></g></g><g fill="#05873d" fill-opacity="1"><g transform="translate(201.693071, 43.157305)"><g><path d="M 27.984375 -28.84375 L 27.984375 -36.0625 L 12.515625 -36.0625 L 12.515625 -23.859375 L 25.859375 -23.859375 L 25.859375 -18.703125 L 12.515625 -18.703125 L 12.515625 -5.15625 L 17.84375 -5.15625 L 17.84375 0 L 1.09375 0 L 1.09375 -5.15625 L 6.3125 -5.15625 L 6.3125 -36.0625 L 1.09375 -36.0625 L 1.09375 -41.234375 L 33.09375 -41.234375 L 33.09375 -28.84375 Z M 27.984375 -28.84375 "/></g></g></g><g fill="#05873d" fill-opacity="1"><g transform="translate(235.203494, 43.157305)"><g><path d="M 27.984375 -28.84375 L 27.984375 -36.0625 L 12.515625 -36.0625 L 12.515625 -23.859375 L 25.859375 -23.859375 L 25.859375 -18.703125 L 12.515625 -18.703125 L 12.515625 -5.15625 L 17.84375 -5.15625 L 17.84375 0 L 1.09375 0 L 1.09375 -5.15625 L 6.3125 -5.15625 L 6.3125 -36.0625 L 1.09375 -36.0625 L 1.09375 -41.234375 L 33.09375 -41.234375 L 33.09375 -28.84375 Z M 27.984375 -28.84375 "/></g></g></g><g fill="#05873d" fill-opacity="1"><g transform="translate(268.713893, 43.157305)"><g><path d="M 12.515625 -36.0625 L 12.515625 -5.15625 L 25.375 -5.15625 L 25.375 -19.1875 L 31.09375 -19.1875 L 31.09375 0 L 0.84375 0 L 0.84375 -5.15625 L 6.3125 -5.15625 L 6.3125 -36.0625 L 0.84375 -36.0625 L 0.84375 -41.234375 L 17.734375 -41.234375 L 17.734375 -36.0625 Z M 12.515625 -36.0625 "/></g></g></g><g fill="#05873d" fill-opacity="1"><g transform="translate(300.342385, 43.157305)"><g><path d="M 30.78125 -28.84375 L 30.78125 -36.0625 L 13.234375 -36.0625 L 13.234375 -23.796875 L 28.53125 -23.796875 L 28.53125 -18.640625 L 13.234375 -18.640625 L 13.234375 -5.15625 L 30.78125 -5.15625 L 30.78125 -12.6875 L 35.890625 -12.6875 L 35.890625 0 L 1.703125 0 L 1.703125 -5.15625 L 7.046875 -5.15625 L 7.046875 -36.0625 L 1.703125 -36.0625 L 1.703125 -41.234375 L 35.890625 -41.234375 L 35.890625 -28.84375 Z M 30.78125 -28.84375 "/></g></g></g><g clip-path="url(#aef2f82e99)"><g fill="#05873d" fill-opacity="1"><g transform="translate(338.284429, 43.157305)"><g><path d="M 20.15625 -41.234375 C 23.84375 -41.234375 26.898438 -40.367188 29.328125 -38.640625 C 31.753906 -36.921875 32.96875 -34.203125 32.96875 -30.484375 C 32.96875 -27.972656 32.28125 -25.816406 30.90625 -24.015625 C 29.53125 -22.210938 27.382812 -20.925781 24.46875 -20.15625 L 31.75 -5.15625 L 36.796875 -5.15625 L 36.796875 0 L 27.875 0 L 18.515625 -19.3125 L 12.625 -19.3125 L 12.625 -5.15625 L 17.96875 -5.15625 L 17.96875 0 L 0.796875 0 L 0.796875 -5.15625 L 6.4375 -5.15625 L 6.4375 -36.0625 L 0.796875 -36.0625 L 0.796875 -41.234375 Z M 19.859375 -24.46875 C 21.921875 -24.46875 23.566406 -24.960938 24.796875 -25.953125 C 26.035156 -26.941406 26.65625 -28.453125 26.65625 -30.484375 C 26.65625 -32.222656 26.097656 -33.585938 24.984375 -34.578125 C 23.867188 -35.566406 22.320312 -36.0625 20.34375 -36.0625 L 12.625 -36.0625 L 12.625 -24.46875 Z M 19.859375 -24.46875 "/></g></g></g></g></g></g></svg>