<svg xmlns="http://www.w3.org/2000/svg" xmlns:xlink="http://www.w3.org/1999/xlink" width="500" zoomAndPan="magnify" viewBox="0 0 375 374.999991" height="500" preserveAspectRatio="xMidYMid meet" version="1.0"><defs><clipPath id="b735c1f23a"><path d="M 104 128.046875 L 157 128.046875 L 157 214 L 104 214 Z M 104 128.046875 " clip-rule="nonzero"/></clipPath></defs><g clip-path="url(#b735c1f23a)"><path fill="#69781e" d="M 156.035156 128.046875 L 104.773438 213.847656 L 120.828125 213.847656 C 120.828125 213.847656 152.699219 136.332031 156.035156 128.046875 Z M 156.035156 128.046875 " fill-opacity="1" fill-rule="nonzero"/></g><path fill="#69781e" d="M 155.550781 213.847656 C 155.550781 213.847656 154.933594 150.742188 154.933594 149.15625 C 154.933594 147.566406 150.816406 177.441406 146.058594 213.847656 Z M 155.550781 213.847656 " fill-opacity="1" fill-rule="nonzero"/><path fill="#69781e" d="M 174.851562 213.847656 L 164.753906 213.847656 C 164.753906 213.847656 157.402344 159.636719 157.535156 159.574219 C 157.671875 159.511719 172.96875 208.394531 174.851562 213.847656 Z M 174.851562 213.847656 " fill-opacity="1" fill-rule="nonzero"/><path fill="#69781e" d="M 184.351562 213.847656 L 165.71875 176.53125 L 200.386719 213.847656 Z M 184.351562 213.847656 " fill-opacity="1" fill-rule="nonzero"/><path fill="#69781e" d="M 48.265625 186.605469 C 49.785156 193.246094 51.878906 196.882812 56.171875 200.210938 C 60.601562 203.753906 66.648438 205.636719 73.867188 205.636719 C 84.34375 205.636719 92.605469 199 92.605469 190.820312 C 92.605469 183.070312 87.132812 179.085938 71.1875 175.542969 C 58.148438 172.675781 55.707031 171.679688 48.605469 166.144531 C 44.179688 161.71875 42.203125 157.402344 42.203125 152.085938 C 42.203125 139.367188 54.65625 130.742188 72.933594 130.742188 C 94.929688 130.742188 100.398438 143.242188 102.503906 147.667969 L 93.902344 155.296875 C 92.265625 150.539062 88.894531 140.695312 72.015625 140.695312 C 60.949219 140.695312 54.085938 145.011719 54.085938 152.085938 C 54.085938 159.613281 66.308594 162.367188 74.339844 164.261719 C 87.140625 167.03125 104.953125 171.679688 104.953125 189.816406 C 104.953125 205.191406 91.796875 215.375 71.75 215.375 C 59.992188 215.375 50.449219 211.722656 44.273438 204.859375 C 41.769531 201.984375 40.472656 199.777344 38.605469 194.242188 Z M 48.265625 186.605469 " fill-opacity="1" fill-rule="nonzero"/><path fill="#69781e" d="M 268.339844 199.199219 C 265.074219 203.292969 263.683594 204.84375 260.535156 207.050781 C 256.835938 209.703125 252.820312 211.726562 248.488281 213.121094 C 244.15625 214.519531 239.714844 215.222656 235.164062 215.234375 C 210.484375 215.234375 194.425781 199.523438 194.425781 175.410156 C 194.425781 147.867188 210.238281 130.71875 236.097656 130.71875 C 238.898438 130.710938 241.667969 131.023438 244.394531 131.652344 C 247.125 132.285156 249.746094 133.21875 252.261719 134.457031 C 254.773438 135.695312 257.113281 137.203125 259.28125 138.980469 C 261.445312 140.761719 263.378906 142.761719 265.082031 144.988281 L 258.328125 153.835938 C 252.96875 145.730469 244.953125 140.640625 235.503906 140.640625 C 217.464844 140.640625 206.640625 153.359375 206.640625 174.714844 C 206.640625 194.078125 217.34375 205.46875 235.386719 205.46875 C 247.378906 205.46875 253.199219 199.714844 256.804688 195.738281 L 256.804688 182.785156 L 224.097656 182.785156 L 224.097656 172.945312 L 268.371094 172.945312 L 268.371094 199.199219 Z M 268.339844 199.199219 " fill-opacity="1" fill-rule="nonzero"/><path fill="#69781e" d="M 283.78125 132 L 336.046875 132 L 332.882812 141.40625 L 295.171875 141.40625 L 295.171875 167.386719 L 329.746094 167.386719 L 329.746094 176.871094 L 295.1875 176.871094 L 295.1875 205.304688 L 333.019531 205.304688 L 336.394531 214.789062 L 283.78125 214.789062 Z M 283.78125 132 " fill-opacity="1" fill-rule="nonzero"/><path fill="#69781e" d="M 154.832031 136.933594 L 129.816406 214.046875 L 139.019531 214.046875 Z M 154.832031 136.933594 " fill-opacity="1" fill-rule="nonzero"/><path fill="#69781e" d="M 48.542969 227.660156 L 50.996094 227.660156 L 59.753906 246.53125 L 56.972656 246.53125 L 54.828125 241.980469 L 44.710938 241.980469 L 42.558594 246.523438 L 39.761719 246.523438 Z M 49.769531 231.035156 L 45.761719 239.640625 L 53.746094 239.640625 Z M 49.769531 231.035156 " fill-opacity="1" fill-rule="nonzero"/><path fill="#69781e" d="M 63.511719 233.589844 L 65.882812 233.589844 L 65.882812 241.734375 C 65.882812 243.90625 66.800781 245.007812 68.632812 245.007812 C 69.101562 245.015625 69.550781 244.933594 69.984375 244.761719 C 70.421875 244.59375 70.804688 244.347656 71.140625 244.023438 C 71.480469 243.699219 71.742188 243.320312 71.929688 242.894531 C 72.113281 242.464844 72.214844 242.019531 72.222656 241.550781 L 72.222656 233.589844 L 74.59375 233.589844 L 74.59375 246.523438 L 72.222656 246.523438 L 72.222656 244.265625 C 71.667969 245.054688 70.355469 246.960938 67.914062 246.960938 C 67.625 246.988281 67.332031 246.980469 67.042969 246.945312 C 66.753906 246.910156 66.472656 246.84375 66.195312 246.746094 C 65.921875 246.648438 65.660156 246.523438 65.414062 246.371094 C 65.164062 246.214844 64.9375 246.039062 64.726562 245.835938 C 64.519531 245.632812 64.332031 245.410156 64.171875 245.164062 C 64.011719 244.921875 63.878906 244.664062 63.773438 244.390625 C 63.667969 244.121094 63.59375 243.839844 63.550781 243.550781 C 63.503906 243.261719 63.492188 242.972656 63.511719 242.683594 Z M 63.511719 233.589844 " fill-opacity="1" fill-rule="nonzero"/><path fill="#69781e" d="M 84.585938 228.640625 L 84.585938 233.589844 L 87.503906 233.589844 L 87.503906 235.425781 L 84.585938 235.425781 L 84.585938 243.25 C 84.585938 244.613281 84.863281 245.03125 85.8125 245.03125 C 86.332031 245.007812 86.839844 244.929688 87.339844 244.792969 L 87.339844 246.636719 C 86.644531 246.800781 85.941406 246.894531 85.226562 246.921875 C 83.085938 246.921875 82.253906 246.265625 82.253906 244.546875 L 82.253906 235.425781 L 79.773438 235.425781 L 79.773438 233.589844 L 82.246094 233.589844 L 82.246094 230.214844 Z M 84.585938 228.640625 " fill-opacity="1" fill-rule="nonzero"/><path fill="#69781e" d="M 105.277344 239.921875 C 105.277344 244.191406 102.714844 246.914062 98.792969 246.914062 C 95.070312 246.914062 92.46875 244.082031 92.46875 240.003906 C 92.46875 236.050781 95.085938 233.25 98.792969 233.25 C 102.503906 233.25 105.277344 236.003906 105.277344 239.921875 Z M 94.929688 240.136719 C 94.929688 243.25 96.398438 245.03125 99.015625 245.03125 C 101.386719 245.03125 102.828125 243.171875 102.828125 240.082031 C 102.828125 236.546875 101.070312 235.109375 98.792969 235.109375 C 96.519531 235.109375 94.9375 236.863281 94.9375 240.136719 Z M 94.929688 240.136719 " fill-opacity="1" fill-rule="nonzero"/><path fill="#69781e" d="M 129.3125 246.523438 L 127.003906 246.523438 L 127.003906 238.175781 C 127.003906 236.261719 125.976562 235.117188 124.308594 235.117188 C 122.25 235.117188 121.191406 236.398438 121.191406 238.886719 L 121.191406 246.53125 L 118.820312 246.53125 L 118.820312 238.730469 C 118.820312 236.238281 117.984375 235.117188 116.125 235.117188 C 114.265625 235.117188 113.007812 236.53125 113.007812 238.515625 L 113.007812 246.546875 L 110.734375 246.546875 L 110.734375 233.589844 L 113.042969 233.589844 L 113.042969 235.960938 C 114.15625 234.082031 115.414062 233.242188 117.074219 233.242188 C 119.050781 233.242188 120.15625 234.238281 120.90625 236.074219 C 121.699219 234.949219 122.828125 233.242188 125.191406 233.242188 C 125.46875 233.238281 125.742188 233.261719 126.011719 233.3125 C 126.285156 233.363281 126.546875 233.441406 126.804688 233.542969 C 127.058594 233.648438 127.300781 233.777344 127.53125 233.933594 C 127.757812 234.085938 127.96875 234.261719 128.160156 234.460938 C 128.355469 234.65625 128.527344 234.871094 128.675781 235.105469 C 128.824219 235.335938 128.949219 235.582031 129.046875 235.839844 C 129.144531 236.097656 129.21875 236.363281 129.261719 236.632812 C 129.304688 236.90625 129.324219 237.179688 129.3125 237.457031 Z M 129.3125 246.523438 " fill-opacity="1" fill-rule="nonzero"/><path fill="#69781e" d="M 147.527344 239.921875 C 147.527344 244.191406 144.964844 246.914062 141.042969 246.914062 C 137.320312 246.914062 134.71875 244.082031 134.71875 240.003906 C 134.71875 236.050781 137.335938 233.25 141.042969 233.25 C 144.753906 233.25 147.527344 236.003906 147.527344 239.921875 Z M 137.179688 240.136719 C 137.179688 243.25 138.648438 245.03125 141.265625 245.03125 C 143.636719 245.03125 145.078125 243.171875 145.078125 240.082031 C 145.078125 236.546875 143.320312 235.109375 141.042969 235.109375 C 138.765625 235.109375 137.179688 236.863281 137.179688 240.136719 Z M 137.179688 240.136719 " fill-opacity="1" fill-rule="nonzero"/><path fill="#69781e" d="M 156.121094 228.640625 L 156.121094 233.589844 L 159.039062 233.589844 L 159.039062 235.425781 L 156.121094 235.425781 L 156.121094 243.25 C 156.121094 244.613281 156.398438 245.03125 157.347656 245.03125 C 157.863281 245.007812 158.371094 244.929688 158.871094 244.792969 L 158.871094 246.636719 C 158.179688 246.800781 157.472656 246.894531 156.761719 246.921875 C 154.617188 246.921875 153.789062 246.265625 153.789062 244.546875 L 153.789062 235.425781 L 151.3125 235.425781 L 151.3125 233.589844 L 153.789062 233.589844 L 153.789062 230.214844 Z M 156.121094 228.640625 " fill-opacity="1" fill-rule="nonzero"/><path fill="#69781e" d="M 165.378906 228.277344 L 167.75 228.277344 L 167.75 231.109375 L 165.378906 231.109375 Z M 165.378906 233.589844 L 167.75 233.589844 L 167.75 246.523438 L 165.378906 246.523438 Z M 165.378906 233.589844 " fill-opacity="1" fill-rule="nonzero"/><path fill="#69781e" d="M 173.800781 233.589844 L 176.050781 233.589844 L 179.429688 243.472656 L 182.742188 233.605469 L 184.960938 233.605469 L 180.675781 246.539062 L 178.203125 246.539062 Z M 173.800781 233.589844 " fill-opacity="1" fill-rule="nonzero"/><path fill="#69781e" d="M 201.003906 243.195312 C 200.675781 244 200.191406 244.699219 199.558594 245.292969 C 198.96875 245.828125 198.300781 246.234375 197.558594 246.515625 C 196.8125 246.796875 196.042969 246.929688 195.246094 246.914062 C 191.601562 246.914062 189.160156 244.136719 189.160156 240.082031 C 189.160156 236.027344 191.691406 233.25 195.359375 233.25 C 198.726562 233.25 201.199219 235.867188 201.199219 239.402344 C 201.199219 239.796875 201.199219 240.238281 201.144531 240.785156 L 191.578125 240.785156 C 191.800781 245.15625 194.949219 245.15625 195.445312 245.15625 C 195.867188 245.160156 196.277344 245.097656 196.679688 244.964844 C 197.082031 244.832031 197.449219 244.636719 197.785156 244.378906 C 198.117188 244.125 198.402344 243.820312 198.636719 243.46875 C 198.871094 243.117188 199.039062 242.734375 199.144531 242.328125 Z M 198.78125 239.039062 C 198.558594 235.03125 195.621094 235.03125 195.246094 235.03125 C 193.082031 235.03125 191.769531 236.46875 191.636719 239.039062 Z M 198.78125 239.039062 " fill-opacity="1" fill-rule="nonzero"/><path fill="#69781e" d="M 215.882812 227.660156 L 218.632812 227.660156 L 218.632812 246.53125 L 215.882812 246.53125 Z M 215.882812 227.660156 " fill-opacity="1" fill-rule="nonzero"/><path fill="#69781e" d="M 237.300781 246.523438 L 234.929688 246.523438 L 234.929688 238.199219 C 234.929688 236.261719 233.867188 235.140625 232.089844 235.140625 C 231.867188 235.121094 231.648438 235.128906 231.425781 235.15625 C 231.207031 235.183594 230.988281 235.234375 230.78125 235.308594 C 230.570312 235.382812 230.367188 235.476562 230.179688 235.589844 C 229.988281 235.703125 229.808594 235.835938 229.648438 235.988281 C 229.484375 236.140625 229.335938 236.304688 229.207031 236.488281 C 229.078125 236.667969 228.96875 236.859375 228.882812 237.066406 C 228.792969 237.269531 228.722656 237.480469 228.679688 237.699219 C 228.632812 237.914062 228.609375 238.136719 228.609375 238.359375 L 228.609375 246.523438 L 226.238281 246.523438 L 226.238281 233.589844 L 228.609375 233.589844 L 228.609375 235.890625 C 229.890625 234.136719 231.394531 233.25 233.085938 233.25 C 233.367188 233.238281 233.648438 233.257812 233.925781 233.304688 C 234.207031 233.351562 234.476562 233.425781 234.738281 233.53125 C 235 233.636719 235.25 233.765625 235.484375 233.925781 C 235.71875 234.082031 235.9375 234.261719 236.132812 234.464844 C 236.332031 234.667969 236.503906 234.886719 236.65625 235.125 C 236.804688 235.367188 236.929688 235.617188 237.027344 235.882812 C 237.121094 236.148438 237.191406 236.421875 237.230469 236.699219 C 237.269531 236.980469 237.28125 237.261719 237.261719 237.542969 L 237.261719 246.523438 Z M 237.300781 246.523438 " fill-opacity="1" fill-rule="nonzero"/><path fill="#69781e" d="M 246.777344 228.640625 L 246.777344 233.589844 L 249.695312 233.589844 L 249.695312 235.425781 L 246.777344 235.425781 L 246.777344 243.25 C 246.777344 244.613281 247.054688 245.03125 248.003906 245.03125 C 248.523438 245.007812 249.03125 244.929688 249.53125 244.792969 L 249.53125 246.636719 C 248.835938 246.800781 248.132812 246.894531 247.417969 246.921875 C 245.277344 246.921875 244.445312 246.265625 244.445312 244.546875 L 244.445312 235.425781 L 241.972656 235.425781 L 241.972656 233.589844 L 244.445312 233.589844 L 244.445312 230.214844 Z M 246.777344 228.640625 " fill-opacity="1" fill-rule="nonzero"/><path fill="#69781e" d="M 266.695312 243.195312 C 266.367188 244 265.882812 244.699219 265.246094 245.292969 C 264.660156 245.828125 263.992188 246.234375 263.25 246.515625 C 262.503906 246.796875 261.734375 246.929688 260.9375 246.914062 C 257.292969 246.914062 254.851562 244.136719 254.851562 240.082031 C 254.851562 236.027344 257.382812 233.25 261.050781 233.25 C 264.417969 233.25 266.890625 235.867188 266.890625 239.402344 C 266.890625 239.796875 266.890625 240.238281 266.835938 240.785156 L 257.269531 240.785156 C 257.492188 245.15625 260.636719 245.15625 261.136719 245.15625 C 261.558594 245.160156 261.96875 245.097656 262.371094 244.964844 C 262.769531 244.832031 263.140625 244.636719 263.472656 244.378906 C 263.808594 244.125 264.09375 243.820312 264.328125 243.46875 C 264.5625 243.117188 264.730469 242.734375 264.835938 242.328125 Z M 264.472656 239.039062 C 264.25 235.03125 261.308594 235.03125 260.9375 235.03125 C 258.773438 235.03125 257.460938 236.46875 257.324219 239.039062 Z M 264.472656 239.039062 " fill-opacity="1" fill-rule="nonzero"/><path fill="#69781e" d="M 274.957031 236.105469 C 275.652344 234.902344 276.601562 233.273438 278.601562 233.273438 C 278.878906 233.273438 279.210938 233.273438 279.574219 233.328125 L 279.574219 235.605469 C 279.179688 235.542969 278.78125 235.507812 278.378906 235.503906 C 278.152344 235.492188 277.929688 235.5 277.707031 235.535156 C 277.480469 235.566406 277.265625 235.625 277.050781 235.703125 C 276.839844 235.78125 276.636719 235.882812 276.449219 236.003906 C 276.257812 236.125 276.078125 236.261719 275.917969 236.421875 C 275.753906 236.578125 275.609375 236.75 275.484375 236.9375 C 275.359375 237.125 275.253906 237.324219 275.167969 237.535156 C 275.082031 237.746094 275.019531 237.960938 274.980469 238.183594 C 274.941406 238.40625 274.925781 238.628906 274.933594 238.855469 L 274.933594 246.523438 L 272.625 246.523438 L 272.625 233.589844 L 274.996094 233.589844 L 274.996094 236.105469 Z M 274.957031 236.105469 " fill-opacity="1" fill-rule="nonzero"/><path fill="#69781e" d="M 285.496094 228.277344 L 287.867188 228.277344 L 287.867188 231.109375 L 285.496094 231.109375 Z M 285.496094 233.589844 L 287.867188 233.589844 L 287.867188 246.523438 L 285.496094 246.523438 Z M 285.496094 233.589844 " fill-opacity="1" fill-rule="nonzero"/><path fill="#69781e" d="M 306.621094 239.921875 C 306.621094 244.191406 304.058594 246.914062 300.136719 246.914062 C 296.414062 246.914062 293.8125 244.082031 293.8125 240.003906 C 293.8125 236.050781 296.429688 233.25 300.136719 233.25 C 303.84375 233.25 306.621094 236.003906 306.621094 239.921875 Z M 296.269531 240.136719 C 296.269531 243.25 297.742188 245.03125 300.359375 245.03125 C 302.730469 245.03125 304.167969 243.171875 304.167969 240.082031 C 304.167969 236.546875 302.414062 235.109375 300.136719 235.109375 C 297.859375 235.109375 296.253906 236.863281 296.253906 240.136719 Z M 296.269531 240.136719 " fill-opacity="1" fill-rule="nonzero"/><path fill="#69781e" d="M 314.390625 236.105469 C 315.085938 234.902344 316.035156 233.273438 318.035156 233.273438 C 318.3125 233.273438 318.644531 233.273438 319.007812 233.328125 L 319.007812 235.605469 C 318.613281 235.542969 318.214844 235.507812 317.816406 235.503906 C 317.589844 235.492188 317.363281 235.5 317.140625 235.535156 C 316.917969 235.566406 316.699219 235.625 316.488281 235.703125 C 316.273438 235.78125 316.074219 235.882812 315.882812 236.003906 C 315.691406 236.125 315.515625 236.261719 315.351562 236.421875 C 315.191406 236.578125 315.046875 236.75 314.921875 236.9375 C 314.792969 237.125 314.6875 237.324219 314.605469 237.535156 C 314.519531 237.746094 314.457031 237.960938 314.417969 238.183594 C 314.378906 238.40625 314.359375 238.628906 314.367188 238.855469 L 314.367188 246.523438 L 312.058594 246.523438 L 312.058594 233.589844 L 314.429688 233.589844 L 314.429688 236.105469 Z M 314.390625 236.105469 " fill-opacity="1" fill-rule="nonzero"/><path fill="#69781e" d="M 325.546875 242.230469 C 325.769531 244.191406 327.074219 245.164062 329.5 245.164062 C 331.390625 245.164062 332.8125 244.328125 332.8125 243.226562 C 332.8125 242.128906 331.785156 241.472656 329.222656 241.054688 C 326.660156 240.636719 324.109375 239.742188 324.109375 237.023438 C 324.109375 234.769531 326.273438 233.226562 329.445312 233.226562 C 333.398438 233.226562 334.613281 235.84375 334.726562 236.707031 L 333.082031 237.75 C 332.605469 235.890625 331.414062 235.03125 329.382812 235.03125 C 327.625 235.03125 326.21875 235.820312 326.21875 236.808594 C 326.21875 237.796875 327.277344 238.460938 329.777344 238.847656 C 330.386719 238.949219 335.035156 239.402344 335.089844 242.878906 C 335.089844 242.984375 335.089844 246.9375 329.191406 246.9375 C 327.742188 246.996094 326.425781 246.613281 325.238281 245.78125 C 324.382812 245.148438 323.855469 244.3125 323.65625 243.269531 Z M 325.546875 242.230469 " fill-opacity="1" fill-rule="nonzero"/></svg>