<svg xmlns="http://www.w3.org/2000/svg" xmlns:xlink="http://www.w3.org/1999/xlink" width="500" zoomAndPan="magnify" viewBox="0 0 375 374.999991" height="500" preserveAspectRatio="xMidYMid meet" version="1.0"><defs><clipPath id="e4c89d4816"><path d="M 96.304688 214.582031 L 352.621094 214.582031 L 352.621094 282.726562 L 96.304688 282.726562 Z M 96.304688 214.582031 " clip-rule="nonzero"/></clipPath><clipPath id="fad29d4ba8"><path d="M 0.304688 0.582031 L 256.621094 0.582031 L 256.621094 68.726562 L 0.304688 68.726562 Z M 0.304688 0.582031 " clip-rule="nonzero"/></clipPath><clipPath id="5da3d6bdad"><rect x="0" width="257" y="0" height="69"/></clipPath></defs><path fill="#77787b" d="M 195.921875 198.539062 L 200.5 176.957031 L 205.113281 176.957031 C 212.660156 176.957031 216.503906 180.363281 214.929688 187.765625 C 213.355469 195.167969 208.082031 198.574219 200.535156 198.574219 L 195.921875 198.574219 L 177.355469 207.550781 L 201.414062 207.550781 C 213.648438 207.550781 218.335938 206.011719 223.792969 202.3125 C 227.820312 199.5625 230.933594 193.921875 232.175781 188.132812 C 233.421875 182.195312 232.46875 177.433594 230.238281 174.539062 C 225.988281 169.078125 218.664062 168.015625 206.980469 168.015625 L 185.777344 168.015625 L 177.355469 207.589844 L 195.921875 198.613281 Z M 195.921875 198.539062 " fill-opacity="1" fill-rule="nonzero"/><path fill="#77787b" d="M 147.839844 200.261719 C 142.382812 200.261719 139.160156 195.863281 140.882812 187.730469 C 142.601562 179.632812 147.398438 175.894531 152.855469 175.894531 C 158.3125 175.894531 161.535156 179.632812 159.816406 187.730469 C 158.09375 195.828125 153.296875 200.261719 147.839844 200.261719 L 145.933594 208.578125 C 156.117188 208.578125 163.550781 205.828125 168.675781 201.726562 C 172.632812 198.613281 175.523438 193.847656 176.808594 187.730469 C 179.332031 175.894531 174.097656 166.917969 154.761719 166.917969 C 135.425781 166.917969 139.34375 168.601562 134.984375 171.316406 C 129.75 174.539062 125.5 180.070312 123.890625 187.765625 C 121.363281 199.601562 126.597656 208.578125 145.933594 208.578125 Z M 147.839844 200.261719 " fill-opacity="1" fill-rule="nonzero"/><path fill="#77787b" d="M 240.855469 167.945312 L 257.519531 167.945312 L 249.097656 207.515625 L 232.433594 207.515625 Z M 240.855469 167.945312 " fill-opacity="1" fill-rule="nonzero"/><path fill="#77787b" d="M 263.597656 167.945312 L 287.988281 167.945312 L 295.679688 194.472656 L 295.824219 194.472656 L 301.464844 167.945312 L 315.929688 167.945312 L 307.507812 207.515625 L 283.886719 207.515625 L 275.757812 179.339844 L 275.648438 179.339844 L 269.675781 207.515625 L 255.210938 207.515625 L 263.636719 167.945312 Z M 263.597656 167.945312 " fill-opacity="1" fill-rule="nonzero"/><path fill="#77787b" d="M 322.300781 167.945312 L 360.203125 167.945312 L 358.445312 176.261719 L 336.65625 176.261719 L 335.121094 183.550781 L 355.554688 183.550781 L 353.796875 191.871094 L 333.363281 191.871094 L 331.824219 199.160156 L 353.832031 199.160156 L 352.074219 207.476562 L 313.953125 207.476562 L 322.375 167.90625 Z M 322.300781 167.945312 " fill-opacity="1" fill-rule="nonzero"/><path fill="#77787b" d="M 56.871094 167.945312 L 82.105469 167.945312 L 84.742188 194.472656 L 84.851562 194.472656 L 98.472656 167.945312 L 123.851562 167.945312 L 115.429688 207.515625 L 99.976562 207.515625 L 106.3125 177.761719 L 106.199219 177.761719 L 89.027344 207.515625 L 72.914062 207.515625 L 69.066406 177.761719 L 68.882812 177.761719 L 62.550781 207.515625 L 48.414062 207.515625 L 56.835938 167.945312 Z M 56.871094 167.945312 " fill-opacity="1" fill-rule="evenodd"/><path fill="#0365b1" d="M 84.15625 149.074219 C 108.691406 141.234375 125.574219 149.148438 124.585938 166.808594 L 144.433594 166.808594 C 144.542969 166.441406 144.652344 166.039062 144.726562 165.671875 C 150.953125 139.546875 129.417969 126.871094 96.644531 137.347656 C 64.710938 147.535156 33.839844 175.96875 26.515625 201.578125 C 32.738281 180.585938 58.007812 157.429688 84.15625 149.074219 Z M 84.15625 149.074219 " fill-opacity="1" fill-rule="evenodd"/><path fill="#da1f3d" d="M 63.609375 226.53125 C 39.183594 233.894531 22.816406 225.433594 24.390625 207.515625 L 4.722656 207.515625 C 4.652344 207.773438 4.578125 208.027344 4.503906 208.246094 C -2.488281 234.59375 18.3125 247.964844 50.941406 238.109375 C 68.226562 232.90625 85.328125 222.207031 98.621094 209.421875 L 99.316406 206.160156 C 88.953125 215.210938 76.316406 222.683594 63.609375 226.496094 Z M 63.609375 226.53125 " fill-opacity="1" fill-rule="evenodd"/><path fill="#77787b" d="M 103.820312 219.421875 L 103.601562 220.449219 L 99.683594 220.449219 L 98.839844 224.296875 L 101.734375 224.296875 L 101.511719 225.324219 L 98.621094 225.324219 L 97.667969 229.683594 L 101.804688 229.683594 L 101.585938 230.707031 L 96.238281 230.707031 L 98.730469 219.421875 L 103.894531 219.421875 Z M 103.820312 219.421875 " fill-opacity="1" fill-rule="nonzero"/><path fill="#77787b" d="M 105.726562 222.574219 L 106.789062 222.574219 L 106.605469 223.453125 C 107.226562 222.902344 108.140625 222.425781 108.65625 222.425781 C 109.789062 222.425781 110.304688 223.050781 109.972656 224.554688 L 108.617188 230.707031 L 107.484375 230.707031 L 108.800781 224.699219 C 109.019531 223.746094 108.800781 223.34375 108.214844 223.34375 C 107.628906 223.34375 107.078125 223.710938 106.457031 224.332031 L 105.066406 230.671875 L 103.929688 230.671875 L 105.726562 222.539062 Z M 105.726562 222.574219 " fill-opacity="1" fill-rule="nonzero"/><path fill="#77787b" d="M 118.6875 223.453125 C 118.542969 223.453125 118.46875 223.453125 118.359375 223.453125 C 118.066406 223.453125 117.847656 223.601562 117.589844 223.785156 C 117.628906 224.296875 117.628906 224.699219 117.515625 225.359375 C 117.078125 227.410156 115.941406 228.253906 114.660156 228.253906 C 113.378906 228.253906 114.183594 228.179688 113.929688 228.179688 C 113.746094 228.21875 113.304688 228.398438 113.234375 228.730469 C 113.085938 229.316406 114 229.351562 115.027344 229.574219 C 116.164062 229.828125 117.113281 230.195312 116.820312 231.515625 C 116.601562 232.578125 115.355469 233.417969 113.671875 233.417969 C 111.988281 233.417969 111.035156 232.722656 111.292969 231.660156 C 111.4375 230.929688 112.058594 230.34375 112.828125 230.050781 C 112.390625 229.902344 112.058594 229.5 112.207031 228.949219 C 112.351562 228.328125 112.976562 227.960938 113.523438 227.851562 C 112.976562 227.410156 112.902344 226.347656 113.085938 225.503906 C 113.523438 223.5625 114.695312 222.425781 116.125 222.425781 C 117.554688 222.425781 117.296875 222.648438 117.445312 223.195312 C 117.773438 222.757812 118.285156 222.425781 118.980469 222.425781 L 118.761719 223.453125 Z M 113.671875 230.269531 C 112.9375 230.5625 112.425781 230.929688 112.316406 231.367188 C 112.171875 232.0625 112.644531 232.503906 113.855469 232.503906 C 115.0625 232.503906 115.648438 231.992188 115.796875 231.332031 C 115.941406 230.5625 114.585938 230.453125 113.671875 230.230469 Z M 114.808594 227.375 C 115.464844 227.375 116.125 226.859375 116.453125 225.324219 C 116.785156 223.785156 116.382812 223.269531 115.722656 223.269531 C 115.0625 223.269531 114.402344 223.785156 114.074219 225.324219 C 113.746094 226.859375 114.148438 227.375 114.808594 227.375 Z M 114.808594 227.375 " fill-opacity="1" fill-rule="nonzero"/><path fill="#77787b" d="M 121.582031 222.574219 L 122.71875 222.574219 L 120.921875 230.707031 L 119.789062 230.707031 Z M 122.277344 219.421875 L 123.414062 219.421875 L 123.121094 220.742188 L 121.984375 220.742188 Z M 122.277344 219.421875 " fill-opacity="1" fill-rule="nonzero"/><path fill="#77787b" d="M 126.121094 222.574219 L 127.183594 222.574219 L 127 223.453125 C 127.625 222.902344 128.539062 222.425781 129.050781 222.425781 C 130.1875 222.425781 130.699219 223.050781 130.371094 224.554688 L 129.015625 230.707031 L 127.878906 230.707031 L 129.199219 224.699219 C 129.417969 223.746094 129.199219 223.34375 128.613281 223.34375 C 128.027344 223.34375 127.476562 223.710938 126.855469 224.332031 L 125.464844 230.671875 L 124.328125 230.671875 L 126.121094 222.539062 Z M 126.121094 222.574219 " fill-opacity="1" fill-rule="nonzero"/><path fill="#77787b" d="M 133.921875 226.824219 L 133.851562 227.265625 C 133.410156 229.242188 133.703125 229.902344 134.765625 229.902344 C 135.828125 229.902344 136.15625 229.097656 136.488281 228.363281 L 137.511719 228.511719 C 137.074219 229.71875 135.902344 230.855469 134.4375 230.855469 C 132.972656 230.855469 132.238281 229.574219 132.898438 226.640625 C 133.519531 223.710938 134.617188 222.425781 136.304688 222.425781 C 137.988281 222.425781 138.464844 223.964844 137.953125 226.3125 L 137.804688 226.859375 L 133.960938 226.859375 Z M 136.851562 225.910156 C 137.21875 224.148438 137.074219 223.378906 136.046875 223.378906 C 135.023438 223.378906 134.582031 223.964844 134.105469 225.910156 Z M 136.851562 225.910156 " fill-opacity="1" fill-rule="nonzero"/><path fill="#77787b" d="M 141.429688 226.824219 L 141.355469 227.265625 C 140.917969 229.242188 141.210938 229.902344 142.273438 229.902344 C 143.335938 229.902344 143.664062 229.097656 143.992188 228.363281 L 145.019531 228.511719 C 144.578125 229.71875 143.40625 230.855469 141.941406 230.855469 C 140.476562 230.855469 139.746094 229.574219 140.40625 226.640625 C 141.027344 223.710938 142.125 222.425781 143.8125 222.425781 C 145.496094 222.425781 145.972656 223.964844 145.457031 226.3125 L 145.3125 226.859375 L 141.46875 226.859375 Z M 144.359375 225.910156 C 144.726562 224.148438 144.582031 223.378906 143.554688 223.378906 C 142.527344 223.378906 142.089844 223.964844 141.613281 225.910156 Z M 144.359375 225.910156 " fill-opacity="1" fill-rule="nonzero"/><path fill="#77787b" d="M 149.15625 222.574219 L 150.292969 222.574219 L 150.074219 223.5625 C 150.953125 222.574219 151.5 222.425781 152.378906 222.425781 L 152.160156 223.492188 C 151.316406 223.492188 150.621094 223.785156 149.742188 224.917969 L 148.460938 230.707031 L 147.328125 230.707031 L 149.121094 222.574219 Z M 149.15625 222.574219 " fill-opacity="1" fill-rule="nonzero"/><path fill="#77787b" d="M 154.394531 222.574219 L 155.53125 222.574219 L 153.734375 230.707031 L 152.601562 230.707031 Z M 155.089844 219.421875 L 156.226562 219.421875 L 155.933594 220.742188 L 154.796875 220.742188 Z M 155.089844 219.421875 " fill-opacity="1" fill-rule="nonzero"/><path fill="#77787b" d="M 158.933594 222.574219 L 159.996094 222.574219 L 159.8125 223.453125 C 160.4375 222.902344 161.351562 222.425781 161.863281 222.425781 C 163 222.425781 163.511719 223.050781 163.183594 224.554688 L 161.828125 230.707031 L 160.691406 230.707031 L 162.011719 224.699219 C 162.230469 223.746094 162.011719 223.34375 161.425781 223.34375 C 160.839844 223.34375 160.289062 223.710938 159.667969 224.332031 L 158.277344 230.671875 L 157.140625 230.671875 L 158.933594 222.539062 Z M 158.933594 222.574219 " fill-opacity="1" fill-rule="nonzero"/><path fill="#77787b" d="M 171.9375 223.453125 C 171.789062 223.453125 171.714844 223.453125 171.605469 223.453125 C 171.3125 223.453125 171.09375 223.601562 170.835938 223.785156 C 170.875 224.296875 170.875 224.699219 170.765625 225.359375 C 170.324219 227.410156 169.1875 228.253906 167.90625 228.253906 C 166.625 228.253906 167.429688 228.179688 167.175781 228.179688 C 166.992188 228.21875 166.550781 228.398438 166.480469 228.730469 C 166.332031 229.316406 167.25 229.351562 168.273438 229.574219 C 169.410156 229.828125 170.359375 230.195312 170.066406 231.515625 C 169.847656 232.578125 168.601562 233.417969 166.917969 233.417969 C 165.234375 233.417969 164.28125 232.722656 164.539062 231.660156 C 164.683594 230.929688 165.308594 230.34375 166.078125 230.050781 C 165.636719 229.902344 165.308594 229.5 165.453125 228.949219 C 165.601562 228.328125 166.222656 227.960938 166.773438 227.851562 C 166.222656 227.410156 166.148438 226.347656 166.332031 225.503906 C 166.773438 223.5625 167.945312 222.425781 169.371094 222.425781 C 170.800781 222.425781 170.542969 222.648438 170.691406 223.195312 C 171.019531 222.757812 171.53125 222.425781 172.230469 222.425781 L 172.007812 223.453125 Z M 166.917969 230.269531 C 166.1875 230.5625 165.671875 230.929688 165.5625 231.367188 C 165.417969 232.0625 165.894531 232.503906 167.101562 232.503906 C 168.308594 232.503906 168.894531 231.992188 169.042969 231.332031 C 169.1875 230.5625 167.835938 230.453125 166.917969 230.230469 Z M 168.054688 227.375 C 168.714844 227.375 169.371094 226.859375 169.703125 225.324219 C 170.03125 223.785156 169.628906 223.269531 168.96875 223.269531 C 168.308594 223.269531 167.652344 223.785156 167.320312 225.324219 C 166.992188 226.859375 167.394531 227.375 168.054688 227.375 Z M 168.054688 227.375 " fill-opacity="1" fill-rule="nonzero"/><path fill="#77787b" d="M 179.441406 224.808594 C 179.957031 223.527344 180.945312 222.425781 182.371094 222.425781 C 183.800781 222.425781 184.496094 223.308594 184.203125 224.734375 L 183.179688 229.28125 C 183.03125 230.011719 182.996094 230.523438 183.070312 230.707031 L 181.898438 230.707031 L 181.898438 230.011719 C 181.382812 230.453125 180.503906 230.855469 179.992188 230.855469 C 178.710938 230.855469 178.050781 230.050781 178.34375 228.765625 C 178.785156 226.75 181.238281 225.761719 182.921875 225.394531 L 183.070312 224.808594 C 183.25 223.929688 182.921875 223.34375 182.226562 223.34375 C 181.53125 223.34375 180.761719 224.1875 180.46875 224.917969 L 179.480469 224.773438 Z M 182.703125 226.347656 C 181.605469 226.679688 179.773438 227.410156 179.480469 228.691406 C 179.296875 229.460938 179.554688 229.9375 180.359375 229.9375 C 181.164062 229.9375 181.605469 229.535156 182.078125 229.097656 Z M 182.703125 226.347656 " fill-opacity="1" fill-rule="nonzero"/><path fill="#77787b" d="M 197.828125 222.832031 C 198.046875 221.035156 197.679688 220.300781 196.726562 220.300781 C 195.300781 220.300781 194.382812 221.546875 193.617188 225.066406 C 192.847656 228.582031 193.175781 229.828125 194.605469 229.828125 C 196.03125 229.828125 196.582031 229.058594 197.09375 226.933594 L 198.304688 226.933594 C 197.71875 229.425781 196.324219 230.855469 194.382812 230.855469 C 192.445312 230.855469 191.453125 229.316406 192.40625 225.066406 C 193.359375 220.816406 194.933594 219.277344 196.949219 219.277344 C 198.960938 219.277344 199.402344 220.449219 199.070312 222.832031 Z M 197.828125 222.832031 " fill-opacity="1" fill-rule="nonzero"/><path fill="#77787b" d="M 202.992188 219.421875 L 204.125 219.421875 L 201.636719 230.707031 L 200.5 230.707031 Z M 202.992188 219.421875 " fill-opacity="1" fill-rule="nonzero"/><path fill="#77787b" d="M 206.542969 226.824219 L 206.46875 227.265625 C 206.03125 229.242188 206.324219 229.902344 207.386719 229.902344 C 208.445312 229.902344 208.777344 229.097656 209.105469 228.363281 L 210.132812 228.511719 C 209.691406 229.71875 208.519531 230.855469 207.019531 230.855469 C 205.515625 230.855469 204.820312 229.574219 205.480469 226.640625 C 206.101562 223.710938 207.203125 222.425781 208.886719 222.425781 C 210.570312 222.425781 211.046875 223.964844 210.535156 226.3125 L 210.386719 226.859375 L 206.542969 226.859375 Z M 209.472656 225.910156 C 209.839844 224.148438 209.691406 223.378906 208.667969 223.378906 C 207.640625 223.378906 207.203125 223.964844 206.726562 225.910156 Z M 209.472656 225.910156 " fill-opacity="1" fill-rule="nonzero"/><path fill="#77787b" d="M 213.609375 224.808594 C 214.125 223.527344 215.113281 222.425781 216.539062 222.425781 C 217.96875 222.425781 218.664062 223.308594 218.371094 224.734375 L 217.347656 229.28125 C 217.199219 230.011719 217.164062 230.523438 217.234375 230.707031 L 216.0625 230.707031 L 216.0625 230.011719 C 215.550781 230.453125 214.671875 230.855469 214.160156 230.855469 C 212.878906 230.855469 212.21875 230.050781 212.511719 228.765625 C 212.953125 226.75 215.40625 225.761719 217.089844 225.394531 L 217.234375 224.808594 C 217.417969 223.929688 217.089844 223.34375 216.394531 223.34375 C 215.699219 223.34375 214.929688 224.1875 214.636719 224.917969 L 213.648438 224.773438 Z M 216.871094 226.347656 C 215.769531 226.679688 213.941406 227.410156 213.648438 228.691406 C 213.464844 229.460938 213.722656 229.9375 214.527344 229.9375 C 215.332031 229.9375 215.773438 229.535156 216.246094 229.097656 Z M 216.871094 226.347656 " fill-opacity="1" fill-rule="nonzero"/><path fill="#77787b" d="M 222.253906 222.574219 L 223.316406 222.574219 L 223.132812 223.453125 C 223.753906 222.902344 224.671875 222.425781 225.183594 222.425781 C 226.316406 222.425781 226.832031 223.050781 226.5 224.554688 L 225.144531 230.707031 L 224.011719 230.707031 L 225.328125 224.699219 C 225.550781 223.746094 225.328125 223.34375 224.742188 223.34375 C 224.15625 223.34375 223.609375 223.710938 222.984375 224.332031 L 221.59375 230.671875 L 220.460938 230.671875 L 222.253906 222.539062 Z M 222.253906 222.574219 " fill-opacity="1" fill-rule="nonzero"/><path fill="#77787b" d="M 230.054688 226.824219 L 229.980469 227.265625 C 229.539062 229.242188 229.832031 229.902344 230.894531 229.902344 C 231.957031 229.902344 232.289062 229.097656 232.617188 228.363281 L 233.640625 228.511719 C 233.203125 229.71875 232.03125 230.855469 230.53125 230.855469 C 229.027344 230.855469 228.332031 229.574219 228.992188 226.640625 C 229.613281 223.710938 230.710938 222.425781 232.398438 222.425781 C 234.082031 222.425781 234.558594 223.964844 234.046875 226.3125 L 233.898438 226.859375 L 230.054688 226.859375 Z M 232.984375 225.910156 C 233.347656 224.148438 233.203125 223.378906 232.175781 223.378906 C 231.152344 223.378906 230.710938 223.964844 230.238281 225.910156 Z M 232.984375 225.910156 " fill-opacity="1" fill-rule="nonzero"/><path fill="#77787b" d="M 237.742188 222.574219 L 238.878906 222.574219 L 238.660156 223.5625 C 239.539062 222.574219 240.089844 222.425781 240.964844 222.425781 L 240.746094 223.492188 C 239.90625 223.492188 239.207031 223.785156 238.332031 224.917969 L 237.046875 230.707031 L 235.914062 230.707031 L 237.707031 222.574219 Z M 237.742188 222.574219 " fill-opacity="1" fill-rule="nonzero"/><path fill="#77787b" d="M 242.503906 229.242188 L 242.175781 230.816406 L 240.746094 233.089844 L 240.269531 233.089844 L 241.515625 230.746094 L 240.894531 230.746094 L 241.222656 229.28125 L 242.542969 229.28125 Z M 242.503906 229.242188 " fill-opacity="1" fill-rule="nonzero"/><path fill="#77787b" d="M 254.296875 219.421875 L 253.199219 224.296875 L 256.492188 224.296875 L 257.59375 219.421875 L 258.800781 219.421875 L 256.3125 230.707031 L 255.101562 230.707031 L 256.273438 225.324219 L 252.980469 225.324219 L 251.808594 230.707031 L 250.597656 230.707031 L 253.089844 219.421875 Z M 254.296875 219.421875 " fill-opacity="1" fill-rule="nonzero"/><path fill="#77787b" d="M 261.328125 226.824219 L 261.253906 227.265625 C 260.816406 229.242188 261.109375 229.902344 262.171875 229.902344 C 263.230469 229.902344 263.5625 229.097656 263.890625 228.363281 L 264.917969 228.511719 C 264.476562 229.71875 263.304688 230.855469 261.804688 230.855469 C 260.300781 230.855469 259.605469 229.574219 260.265625 226.640625 C 260.886719 223.710938 261.988281 222.425781 263.671875 222.425781 C 265.355469 222.425781 265.832031 223.964844 265.320312 226.3125 L 265.171875 226.859375 L 261.328125 226.859375 Z M 264.257812 225.910156 C 264.625 224.148438 264.476562 223.378906 263.453125 223.378906 C 262.425781 223.378906 261.988281 223.964844 261.511719 225.910156 Z M 264.257812 225.910156 " fill-opacity="1" fill-rule="nonzero"/><path fill="#77787b" d="M 268.394531 224.808594 C 268.910156 223.527344 269.898438 222.425781 271.324219 222.425781 C 272.753906 222.425781 273.449219 223.308594 273.15625 224.734375 L 272.132812 229.28125 C 271.984375 230.011719 271.949219 230.523438 272.023438 230.707031 L 270.851562 230.707031 L 270.851562 230.011719 C 270.335938 230.453125 269.457031 230.855469 268.945312 230.855469 C 267.664062 230.855469 267.003906 230.050781 267.296875 228.765625 C 267.738281 226.75 270.191406 225.761719 271.875 225.394531 L 272.023438 224.808594 C 272.203125 223.929688 271.875 223.34375 271.179688 223.34375 C 270.484375 223.34375 269.714844 224.1875 269.421875 224.917969 L 268.433594 224.773438 Z M 271.65625 226.347656 C 270.554688 226.679688 268.726562 227.410156 268.433594 228.691406 C 268.25 229.460938 268.503906 229.9375 269.3125 229.9375 C 270.117188 229.9375 270.558594 229.535156 271.03125 229.097656 Z M 271.65625 226.347656 " fill-opacity="1" fill-rule="nonzero"/><path fill="#77787b" d="M 277.769531 219.421875 L 278.90625 219.421875 L 276.414062 230.707031 L 275.28125 230.707031 Z M 277.769531 219.421875 " fill-opacity="1" fill-rule="nonzero"/><path fill="#77787b" d="M 280.589844 222.574219 L 281.6875 222.574219 L 282.3125 219.863281 L 283.445312 219.863281 L 282.824219 222.574219 L 284.324219 222.574219 L 284.105469 223.527344 L 282.605469 223.527344 L 281.324219 229.242188 C 281.25 229.71875 281.394531 230.050781 281.945312 230.050781 C 282.496094 230.050781 282.457031 229.976562 282.679688 229.902344 L 282.496094 230.746094 C 282.164062 230.820312 281.871094 230.890625 281.394531 230.890625 C 280.335938 230.890625 279.929688 230.378906 280.222656 229.132812 L 281.46875 223.527344 L 280.371094 223.527344 Z M 280.589844 222.574219 " fill-opacity="1" fill-rule="nonzero"/><path fill="#77787b" d="M 287.546875 219.421875 L 288.683594 219.421875 L 287.804688 223.492188 C 288.390625 222.941406 289.269531 222.464844 289.820312 222.464844 C 290.953125 222.464844 291.46875 223.085938 291.136719 224.589844 L 289.78125 230.746094 L 288.648438 230.746094 L 289.964844 224.734375 C 290.183594 223.785156 289.964844 223.378906 289.378906 223.378906 C 288.792969 223.378906 288.246094 223.746094 287.621094 224.371094 L 286.230469 230.707031 L 285.09375 230.707031 L 287.585938 219.421875 Z M 287.546875 219.421875 " fill-opacity="1" fill-rule="nonzero"/><path fill="#77787b" d="M 294.910156 222.574219 L 296.042969 222.574219 L 294.25 230.707031 L 293.113281 230.707031 Z M 295.605469 219.421875 L 296.742188 219.421875 L 296.449219 220.742188 L 295.3125 220.742188 Z M 295.605469 219.421875 " fill-opacity="1" fill-rule="nonzero"/><path fill="#77787b" d="M 299.15625 226.824219 L 299.085938 227.265625 C 298.644531 229.242188 298.9375 229.902344 300 229.902344 C 301.0625 229.902344 301.390625 229.097656 301.722656 228.363281 L 302.746094 228.511719 C 302.308594 229.71875 301.136719 230.855469 299.632812 230.855469 C 298.132812 230.855469 297.4375 229.574219 298.09375 226.640625 C 298.71875 223.710938 299.816406 222.425781 301.5 222.425781 C 303.1875 222.425781 303.660156 223.964844 303.148438 226.3125 L 303.003906 226.859375 L 299.15625 226.859375 Z M 302.085938 225.910156 C 302.453125 224.148438 302.308594 223.378906 301.28125 223.378906 C 300.257812 223.378906 299.816406 223.964844 299.339844 225.910156 Z M 302.085938 225.910156 " fill-opacity="1" fill-rule="nonzero"/><path fill="#77787b" d="M 306.882812 222.574219 L 308.019531 222.574219 L 307.800781 223.5625 C 308.679688 222.574219 309.226562 222.425781 310.105469 222.425781 L 309.886719 223.492188 C 309.046875 223.492188 308.347656 223.785156 307.46875 224.917969 L 306.1875 230.707031 L 305.054688 230.707031 L 306.847656 222.574219 Z M 306.882812 222.574219 " fill-opacity="1" fill-rule="nonzero"/><path fill="#77787b" d="M 318.382812 219.421875 L 317.761719 228.253906 L 321.386719 219.421875 L 322.375 219.421875 L 322.15625 228.253906 L 325.378906 219.421875 L 326.511719 219.421875 L 322.191406 230.707031 L 321.167969 230.707031 L 321.351562 221.839844 L 317.578125 230.707031 L 316.554688 230.707031 L 317.175781 219.421875 Z M 318.382812 219.421875 " fill-opacity="1" fill-rule="nonzero"/><path fill="#77787b" d="M 330.46875 222.425781 C 332.191406 222.425781 332.664062 223.710938 332.042969 226.640625 C 331.382812 229.574219 330.320312 230.855469 328.601562 230.855469 C 326.878906 230.855469 326.402344 229.574219 327.0625 226.640625 C 327.683594 223.710938 328.785156 222.425781 330.46875 222.425781 Z M 328.785156 229.9375 C 329.734375 229.9375 330.285156 229.351562 330.871094 226.640625 C 331.457031 223.964844 331.199219 223.34375 330.25 223.34375 C 329.296875 223.34375 328.746094 223.929688 328.160156 226.640625 C 327.574219 229.316406 327.832031 229.9375 328.785156 229.9375 Z M 328.785156 229.9375 " fill-opacity="1" fill-rule="nonzero"/><path fill="#77787b" d="M 335.777344 222.574219 L 336.914062 222.574219 L 336.695312 223.5625 C 337.574219 222.574219 338.121094 222.425781 339 222.425781 L 338.78125 223.492188 C 337.941406 223.492188 337.242188 223.785156 336.363281 224.917969 L 335.082031 230.707031 L 333.949219 230.707031 L 335.742188 222.574219 Z M 335.777344 222.574219 " fill-opacity="1" fill-rule="nonzero"/><path fill="#77787b" d="M 341.746094 219.421875 L 342.882812 219.421875 L 340.394531 230.707031 L 339.257812 230.707031 Z M 341.746094 219.421875 " fill-opacity="1" fill-rule="nonzero"/><path fill="#77787b" d="M 347.679688 229.9375 C 347.167969 230.523438 346.507812 230.890625 345.8125 230.890625 C 344.53125 230.890625 343.6875 229.792969 344.421875 226.679688 C 345.117188 223.5625 346.398438 222.464844 347.679688 222.464844 C 348.960938 222.464844 348.707031 222.832031 349.035156 223.234375 L 349.878906 219.460938 L 351.011719 219.460938 L 349 228.546875 C 348.78125 229.609375 348.667969 230.269531 348.707031 230.746094 L 347.644531 230.746094 L 347.789062 229.976562 Z M 348.777344 224.078125 C 348.523438 223.746094 348.230469 223.34375 347.71875 223.34375 C 346.765625 223.34375 346.03125 224.113281 345.484375 226.640625 C 344.933594 229.132812 345.335938 229.9375 346.289062 229.9375 C 347.242188 229.9375 347.203125 229.609375 347.644531 229.167969 L 348.777344 224.113281 Z M 348.777344 224.078125 " fill-opacity="1" fill-rule="nonzero"/><path fill="#77787b" d="M 369.46875 162.628906 C 369.46875 161.640625 368.882812 161.203125 367.675781 161.203125 L 365.734375 161.203125 L 365.734375 166.222656 L 366.503906 166.222656 L 366.503906 164.058594 L 367.382812 164.058594 L 368.738281 166.222656 L 369.578125 166.222656 L 368.152344 164.023438 C 368.921875 163.949219 369.46875 163.546875 369.46875 162.628906 Z M 366.539062 163.398438 L 366.539062 161.824219 L 367.566406 161.824219 C 368.445312 161.824219 368.664062 162.082031 368.664062 162.59375 C 368.664062 163.105469 368.371094 163.398438 367.417969 163.398438 L 366.503906 163.398438 Z M 366.539062 163.398438 " fill-opacity="1" fill-rule="nonzero"/><path fill="#77787b" d="M 367.457031 159.371094 C 365.074219 159.371094 363.023438 161.203125 363.023438 163.730469 C 363.023438 166.257812 365.074219 168.089844 367.457031 168.089844 C 369.835938 168.089844 371.851562 166.257812 371.851562 163.730469 C 371.851562 161.203125 369.800781 159.371094 367.457031 159.371094 Z M 367.457031 167.355469 C 365.441406 167.355469 363.867188 165.820312 363.867188 163.691406 C 363.867188 161.566406 365.441406 160.066406 367.457031 160.066406 C 369.46875 160.066406 371.007812 161.640625 371.007812 163.691406 C 371.007812 165.746094 369.433594 167.355469 367.457031 167.355469 Z M 367.457031 167.355469 " fill-opacity="1" fill-rule="nonzero"/><g clip-path="url(#e4c89d4816)"><g transform="matrix(1, 0, 0, 1, 96, 214)"><g clip-path="url(#5da3d6bdad)"><g clip-path="url(#fad29d4ba8)"><path fill="#ffffff" d="M 0.304688 0.582031 L 256.648438 0.582031 L 256.648438 68.726562 L 0.304688 68.726562 Z M 0.304688 0.582031 " fill-opacity="1" fill-rule="nonzero"/></g></g></g></g></svg>