<svg xmlns="http://www.w3.org/2000/svg" xmlns:xlink="http://www.w3.org/1999/xlink" width="500" zoomAndPan="magnify" viewBox="0 0 375 374.999991" height="500" preserveAspectRatio="xMidYMid meet" version="1.0"><defs><clipPath id="dd93f92b84"><path d="M 0 107.871094 L 375 107.871094 L 375 267.148438 L 0 267.148438 Z M 0 107.871094 " clip-rule="nonzero"/></clipPath></defs><g clip-path="url(#dd93f92b84)"><path fill="#ffffff" d="M 373.980469 184.894531 L 297.964844 108.878906 C 296.625 107.539062 294.25 107.539062 292.90625 108.878906 L 271.375 130.414062 C 269.976562 131.808594 269.976562 134.078125 271.375 135.472656 L 304.582031 168.683594 L 3.578125 168.683594 C 1.601562 168.683594 0 170.289062 0 172.261719 L 0 202.714844 C 0 204.691406 1.601562 206.292969 3.578125 206.292969 L 304.582031 206.292969 L 271.375 239.503906 C 269.976562 240.902344 269.976562 243.167969 271.375 244.5625 L 292.90625 266.101562 C 293.578125 266.769531 294.488281 267.148438 295.4375 267.148438 C 296.386719 267.148438 297.296875 266.769531 297.964844 266.101562 L 373.980469 190.082031 C 374.515625 189.546875 374.839844 188.875 374.949219 188.167969 C 375.191406 187.019531 374.871094 185.78125 373.980469 184.894531 " fill-opacity="1" fill-rule="nonzero"/></g></svg>