<svg xmlns="http://www.w3.org/2000/svg" xmlns:xlink="http://www.w3.org/1999/xlink" width="500" zoomAndPan="magnify" viewBox="0 0 375 374.999991" height="500" preserveAspectRatio="xMidYMid meet" version="1.2"><defs><clipPath id="aeb3221d19"><path d="M 5.867188 5.867188 L 368.867188 5.867188 L 368.867188 368.867188 L 5.867188 368.867188 Z M 5.867188 5.867188 "/></clipPath></defs><g id="101fa182f6"><g clip-rule="nonzero" clip-path="url(#aeb3221d19)"><path style=" stroke:none;fill-rule:nonzero;fill:#ffffff;fill-opacity:1;" d="M 369.152344 187.476562 C 369.152344 190.449219 369.078125 193.417969 368.933594 196.386719 C 368.785156 199.359375 368.566406 202.320312 368.277344 205.28125 C 367.984375 208.238281 367.621094 211.1875 367.1875 214.128906 C 366.75 217.066406 366.242188 219.996094 365.660156 222.910156 C 365.082031 225.828125 364.429688 228.726562 363.707031 231.609375 C 362.984375 234.492188 362.191406 237.355469 361.332031 240.203125 C 360.46875 243.046875 359.535156 245.867188 358.535156 248.667969 C 357.53125 251.464844 356.464844 254.238281 355.324219 256.984375 C 354.1875 259.730469 352.984375 262.449219 351.710938 265.132812 C 350.441406 267.820312 349.105469 270.476562 347.703125 273.097656 C 346.304688 275.71875 344.839844 278.304688 343.308594 280.855469 C 341.78125 283.402344 340.191406 285.914062 338.539062 288.386719 C 336.890625 290.859375 335.179688 293.289062 333.40625 295.675781 C 331.636719 298.0625 329.808594 300.40625 327.921875 302.703125 C 326.035156 305 324.097656 307.25 322.097656 309.453125 C 320.101562 311.65625 318.054688 313.808594 315.953125 315.910156 C 313.851562 318.011719 311.699219 320.0625 309.496094 322.058594 C 307.292969 324.054688 305.042969 325.996094 302.746094 327.878906 C 300.445312 329.765625 298.105469 331.59375 295.71875 333.367188 C 293.328125 335.136719 290.898438 336.847656 288.429688 338.5 C 285.957031 340.148438 283.445312 341.738281 280.894531 343.269531 C 278.347656 344.796875 275.761719 346.261719 273.140625 347.664062 C 270.519531 349.0625 267.863281 350.398438 265.175781 351.671875 C 262.488281 352.941406 259.773438 354.144531 257.027344 355.285156 C 254.28125 356.421875 251.507812 357.492188 248.707031 358.492188 C 245.910156 359.492188 243.089844 360.425781 240.242188 361.289062 C 237.398438 362.152344 234.535156 362.945312 231.652344 363.667969 C 228.769531 364.386719 225.867188 365.039062 222.953125 365.621094 C 220.039062 366.199219 217.109375 366.707031 214.167969 367.144531 C 211.230469 367.578125 208.28125 367.945312 205.320312 368.234375 C 202.363281 368.527344 199.398438 368.746094 196.429688 368.890625 C 193.460938 369.035156 190.492188 369.109375 187.519531 369.109375 C 184.546875 369.109375 181.574219 369.035156 178.605469 368.890625 C 175.636719 368.746094 172.671875 368.527344 169.714844 368.234375 C 166.757812 367.945312 163.808594 367.578125 160.867188 367.144531 C 157.925781 366.707031 155 366.199219 152.082031 365.621094 C 149.167969 365.039062 146.269531 364.386719 143.382812 363.667969 C 140.5 362.945312 137.636719 362.152344 134.792969 361.289062 C 131.949219 360.425781 129.125 359.492188 126.328125 358.492188 C 123.527344 357.492188 120.757812 356.421875 118.011719 355.285156 C 115.261719 354.144531 112.546875 352.941406 109.859375 351.671875 C 107.171875 350.398438 104.519531 349.0625 101.898438 347.664062 C 99.273438 346.261719 96.6875 344.796875 94.140625 343.269531 C 91.589844 341.738281 89.078125 340.148438 86.609375 338.5 C 84.136719 336.847656 81.707031 335.136719 79.320312 333.367188 C 76.929688 331.59375 74.589844 329.765625 72.289062 327.878906 C 69.992188 325.996094 67.742188 324.054688 65.539062 322.058594 C 63.335938 320.0625 61.1875 318.011719 59.082031 315.910156 C 56.980469 313.808594 54.933594 311.65625 52.9375 309.453125 C 50.941406 307.25 49 305 47.113281 302.703125 C 45.226562 300.40625 43.398438 298.0625 41.628906 295.675781 C 39.859375 293.289062 38.148438 290.859375 36.496094 288.386719 C 34.84375 285.914062 33.253906 283.402344 31.726562 280.855469 C 30.199219 278.304688 28.734375 275.71875 27.332031 273.097656 C 25.929688 270.476562 24.59375 267.820312 23.324219 265.132812 C 22.050781 262.449219 20.847656 259.730469 19.710938 256.984375 C 18.574219 254.238281 17.503906 251.464844 16.503906 248.667969 C 15.5 245.867188 14.570312 243.046875 13.707031 240.203125 C 12.84375 237.355469 12.050781 234.492188 11.328125 231.609375 C 10.605469 228.726562 9.953125 225.828125 9.375 222.910156 C 8.792969 219.996094 8.285156 217.066406 7.851562 214.128906 C 7.414062 211.1875 7.050781 208.238281 6.757812 205.28125 C 6.46875 202.320312 6.25 199.359375 6.101562 196.386719 C 5.957031 193.417969 5.882812 190.449219 5.882812 187.476562 C 5.882812 184.503906 5.957031 181.53125 6.101562 178.5625 C 6.25 175.59375 6.46875 172.632812 6.757812 169.671875 C 7.050781 166.714844 7.414062 163.765625 7.851562 160.824219 C 8.285156 157.882812 8.792969 154.957031 9.375 152.042969 C 9.953125 149.125 10.605469 146.226562 11.328125 143.34375 C 12.050781 140.460938 12.84375 137.59375 13.707031 134.75 C 14.570312 131.90625 15.5 129.085938 16.503906 126.285156 C 17.503906 123.488281 18.574219 120.714844 19.710938 117.96875 C 20.847656 115.222656 22.050781 112.503906 23.324219 109.816406 C 24.59375 107.128906 25.929688 104.476562 27.332031 101.855469 C 28.734375 99.234375 30.199219 96.648438 31.726562 94.097656 C 33.253906 91.546875 34.84375 89.039062 36.496094 86.566406 C 38.148438 84.09375 39.859375 81.664062 41.628906 79.277344 C 43.398438 76.890625 45.226562 74.546875 47.113281 72.25 C 49 69.953125 50.941406 67.699219 52.9375 65.5 C 54.933594 63.296875 56.980469 61.144531 59.082031 59.042969 C 61.1875 56.941406 63.335938 54.890625 65.539062 52.894531 C 67.742188 50.898438 69.992188 48.957031 72.289062 47.070312 C 74.589844 45.1875 76.929688 43.359375 79.320312 41.585938 C 81.707031 39.816406 84.136719 38.105469 86.609375 36.453125 C 89.078125 34.800781 91.589844 33.210938 94.140625 31.683594 C 96.6875 30.15625 99.273438 28.691406 101.898438 27.289062 C 104.519531 25.886719 107.171875 24.550781 109.859375 23.28125 C 112.546875 22.011719 115.261719 20.804688 118.011719 19.667969 C 120.757812 18.53125 123.527344 17.460938 126.328125 16.460938 C 129.125 15.457031 131.949219 14.527344 134.792969 13.664062 C 137.636719 12.800781 140.5 12.007812 143.382812 11.285156 C 146.269531 10.5625 149.167969 9.914062 152.082031 9.332031 C 155 8.753906 157.925781 8.246094 160.867188 7.808594 C 163.808594 7.371094 166.757812 7.007812 169.714844 6.71875 C 172.671875 6.425781 175.636719 6.207031 178.605469 6.0625 C 181.574219 5.914062 184.546875 5.84375 187.519531 5.84375 C 190.492188 5.84375 193.460938 5.914062 196.429688 6.0625 C 199.398438 6.207031 202.363281 6.425781 205.320312 6.71875 C 208.28125 7.007812 211.230469 7.371094 214.167969 7.808594 C 217.109375 8.246094 220.039062 8.753906 222.953125 9.332031 C 225.867188 9.914062 228.769531 10.5625 231.652344 11.285156 C 234.535156 12.007812 237.398438 12.800781 240.242188 13.664062 C 243.089844 14.527344 245.910156 15.457031 248.707031 16.460938 C 251.507812 17.460938 254.28125 18.53125 257.027344 19.667969 C 259.773438 20.804688 262.488281 22.011719 265.175781 23.28125 C 267.863281 24.550781 270.519531 25.886719 273.140625 27.289062 C 275.761719 28.691406 278.347656 30.15625 280.894531 31.683594 C 283.445312 33.210938 285.957031 34.800781 288.429688 36.453125 C 290.898438 38.105469 293.328125 39.816406 295.71875 41.585938 C 298.105469 43.359375 300.445312 45.1875 302.746094 47.070312 C 305.042969 48.957031 307.292969 50.898438 309.496094 52.894531 C 311.699219 54.890625 313.851562 56.941406 315.953125 59.042969 C 318.054688 61.144531 320.101562 63.296875 322.097656 65.5 C 324.097656 67.699219 326.035156 69.953125 327.921875 72.25 C 329.808594 74.546875 331.636719 76.890625 333.40625 79.277344 C 335.179688 81.664062 336.890625 84.09375 338.539062 86.566406 C 340.191406 89.039062 341.78125 91.546875 343.308594 94.097656 C 344.839844 96.648438 346.304688 99.234375 347.703125 101.855469 C 349.105469 104.476562 350.441406 107.128906 351.710938 109.816406 C 352.984375 112.503906 354.1875 115.222656 355.324219 117.96875 C 356.464844 120.714844 357.53125 123.488281 358.535156 126.285156 C 359.535156 129.085938 360.46875 131.90625 361.332031 134.75 C 362.191406 137.59375 362.984375 140.460938 363.707031 143.34375 C 364.429688 146.226562 365.082031 149.125 365.660156 152.042969 C 366.242188 154.957031 366.75 157.882812 367.1875 160.824219 C 367.621094 163.765625 367.984375 166.714844 368.277344 169.671875 C 368.566406 172.632812 368.785156 175.59375 368.933594 178.5625 C 369.078125 181.53125 369.152344 184.503906 369.152344 187.476562 Z M 369.152344 187.476562 "/></g><path style=" stroke:none;fill-rule:nonzero;fill:#001859;fill-opacity:1;" d="M 265.824219 148.042969 C 265.8125 146.769531 265.765625 145.496094 265.691406 144.226562 C 265.613281 142.957031 265.507812 141.6875 265.371094 140.421875 C 265.234375 139.160156 265.0625 137.898438 264.863281 136.640625 C 264.664062 135.382812 264.4375 134.132812 264.175781 132.886719 C 263.914062 131.640625 263.625 130.402344 263.304688 129.171875 C 262.984375 127.9375 262.632812 126.714844 262.253906 125.5 C 261.875 124.285156 261.464844 123.082031 261.023438 121.886719 C 260.585938 120.691406 260.117188 119.507812 259.621094 118.335938 C 259.125 117.164062 258.601562 116.007812 258.046875 114.859375 C 257.492188 113.714844 256.914062 112.582031 256.304688 111.464844 C 255.695312 110.347656 255.0625 109.246094 254.398438 108.15625 C 253.738281 107.070312 253.050781 106 252.335938 104.945312 C 251.621094 103.894531 250.882812 102.859375 250.117188 101.839844 C 249.351562 100.824219 248.5625 99.824219 247.75 98.847656 C 246.9375 97.867188 246.097656 96.910156 245.238281 95.972656 C 244.378906 95.035156 243.496094 94.117188 242.59375 93.222656 C 241.6875 92.328125 240.761719 91.453125 239.8125 90.605469 C 238.867188 89.753906 237.898438 88.929688 236.910156 88.125 C 235.921875 87.324219 234.917969 86.546875 233.890625 85.792969 C 232.867188 85.039062 231.824219 84.308594 230.761719 83.605469 C 229.699219 82.902344 228.621094 82.226562 227.527344 81.578125 C 226.433594 80.925781 225.324219 80.304688 224.199219 79.707031 C 223.078125 79.113281 221.9375 78.542969 220.785156 78.003906 C 219.632812 77.460938 218.46875 76.949219 217.292969 76.464844 C 216.117188 75.984375 214.925781 75.527344 213.726562 75.101562 C 212.527344 74.675781 211.320312 74.28125 210.101562 73.914062 C 208.882812 73.546875 207.65625 73.207031 206.421875 72.902344 C 205.183594 72.59375 203.945312 72.316406 202.695312 72.070312 C 201.445312 71.824219 200.191406 71.609375 198.933594 71.421875 C 197.675781 71.238281 196.410156 71.082031 195.144531 70.957031 C 193.878906 70.835938 192.609375 70.742188 191.339844 70.679688 C 190.066406 70.617188 188.796875 70.585938 187.523438 70.585938 C 186.25 70.585938 184.976562 70.617188 183.707031 70.679688 C 182.4375 70.742188 181.167969 70.835938 179.898438 70.957031 C 178.632812 71.082031 177.371094 71.238281 176.113281 71.421875 C 174.851562 71.609375 173.597656 71.824219 172.351562 72.070312 C 171.101562 72.316406 169.859375 72.59375 168.625 72.902344 C 167.390625 73.207031 166.164062 73.546875 164.945312 73.914062 C 163.726562 74.28125 162.515625 74.675781 161.316406 75.101562 C 160.117188 75.527344 158.929688 75.984375 157.753906 76.464844 C 156.574219 76.949219 155.410156 77.460938 154.257812 78.003906 C 153.105469 78.542969 151.96875 79.113281 150.84375 79.707031 C 149.71875 80.304688 148.609375 80.925781 147.515625 81.578125 C 146.421875 82.226562 145.34375 82.902344 144.285156 83.605469 C 143.222656 84.308594 142.179688 85.039062 141.152344 85.792969 C 140.128906 86.546875 139.121094 87.324219 138.132812 88.125 C 137.144531 88.929688 136.179688 89.753906 135.230469 90.605469 C 134.285156 91.453125 133.359375 92.328125 132.453125 93.222656 C 131.546875 94.117188 130.667969 95.035156 129.804688 95.972656 C 128.945312 96.910156 128.109375 97.867188 127.296875 98.847656 C 126.484375 99.824219 125.695312 100.824219 124.929688 101.839844 C 124.164062 102.859375 123.425781 103.894531 122.710938 104.945312 C 121.996094 106 121.308594 107.070312 120.644531 108.15625 C 119.984375 109.246094 119.347656 110.347656 118.738281 111.464844 C 118.132812 112.582031 117.550781 113.714844 116.996094 114.859375 C 116.445312 116.007812 115.921875 117.164062 115.421875 118.335938 C 114.925781 119.507812 114.460938 120.691406 114.019531 121.886719 C 113.582031 123.082031 113.171875 124.285156 112.792969 125.5 C 112.410156 126.714844 112.0625 127.9375 111.742188 129.171875 C 111.417969 130.402344 111.128906 131.640625 110.871094 132.886719 C 110.609375 134.132812 110.378906 135.382812 110.179688 136.640625 C 109.980469 137.898438 109.8125 139.160156 109.675781 140.421875 C 109.539062 141.6875 109.429688 142.957031 109.355469 144.226562 C 109.277344 145.496094 109.234375 146.769531 109.21875 148.042969 C 109.210938 155.09375 110.140625 162.023438 112.011719 168.824219 C 113.878906 175.625 116.621094 182.054688 120.238281 188.113281 L 187.527344 305.21875 L 254.816406 188.113281 C 258.429688 182.054688 261.175781 175.625 263.042969 168.824219 C 264.914062 162.023438 265.84375 155.09375 265.835938 148.042969 Z M 187.519531 111.296875 C 188.722656 111.296875 189.921875 111.355469 191.121094 111.472656 C 192.316406 111.59375 193.507812 111.769531 194.6875 112.003906 C 195.867188 112.238281 197.03125 112.53125 198.183594 112.878906 C 199.335938 113.230469 200.46875 113.632812 201.578125 114.09375 C 202.691406 114.554688 203.777344 115.070312 204.839844 115.636719 C 205.898438 116.203125 206.929688 116.820312 207.933594 117.488281 C 208.933594 118.160156 209.898438 118.875 210.828125 119.636719 C 211.757812 120.402344 212.648438 121.207031 213.5 122.058594 C 214.351562 122.910156 215.15625 123.800781 215.921875 124.730469 C 216.683594 125.660156 217.402344 126.628906 218.070312 127.628906 C 218.738281 128.628906 219.355469 129.660156 219.921875 130.71875 C 220.492188 131.78125 221.003906 132.867188 221.464844 133.980469 C 221.925781 135.09375 222.332031 136.222656 222.679688 137.375 C 223.027344 138.527344 223.320312 139.691406 223.554688 140.875 C 223.789062 142.054688 223.96875 143.242188 224.085938 144.441406 C 224.203125 145.636719 224.261719 146.839844 224.261719 148.042969 C 224.261719 149.246094 224.203125 150.445312 224.085938 151.644531 C 223.96875 152.839844 223.789062 154.03125 223.554688 155.210938 C 223.320312 156.390625 223.027344 157.554688 222.679688 158.707031 C 222.332031 159.859375 221.925781 160.992188 221.464844 162.101562 C 221.003906 163.214844 220.492188 164.300781 219.921875 165.363281 C 219.355469 166.421875 218.738281 167.453125 218.070312 168.457031 C 217.402344 169.457031 216.683594 170.421875 215.921875 171.351562 C 215.15625 172.28125 214.351562 173.171875 213.5 174.023438 C 212.648438 174.875 211.757812 175.679688 210.828125 176.445312 C 209.898438 177.207031 208.933594 177.925781 207.933594 178.59375 C 206.929688 179.261719 205.898438 179.878906 204.839844 180.445312 C 203.777344 181.015625 202.691406 181.527344 201.578125 181.988281 C 200.46875 182.449219 199.335938 182.855469 198.183594 183.203125 C 197.03125 183.550781 195.867188 183.84375 194.6875 184.078125 C 193.507812 184.3125 192.316406 184.492188 191.121094 184.609375 C 189.921875 184.726562 188.722656 184.785156 187.519531 184.785156 C 186.316406 184.785156 185.113281 184.726562 183.917969 184.609375 C 182.71875 184.492188 181.53125 184.3125 180.347656 184.078125 C 179.167969 183.84375 178.003906 183.550781 176.851562 183.203125 C 175.699219 182.855469 174.570312 182.449219 173.457031 181.988281 C 172.34375 181.527344 171.257812 181.015625 170.195312 180.445312 C 169.136719 179.878906 168.105469 179.261719 167.105469 178.59375 C 166.101562 177.925781 165.136719 177.207031 164.207031 176.445312 C 163.277344 175.679688 162.386719 174.875 161.535156 174.023438 C 160.683594 173.171875 159.878906 172.28125 159.113281 171.351562 C 158.351562 170.421875 157.636719 169.457031 156.964844 168.457031 C 156.296875 167.453125 155.679688 166.421875 155.113281 165.363281 C 154.546875 164.300781 154.03125 163.214844 153.570312 162.101562 C 153.109375 160.992188 152.707031 159.859375 152.355469 158.707031 C 152.007812 157.554688 151.714844 156.390625 151.480469 155.210938 C 151.246094 154.03125 151.070312 152.839844 150.949219 151.644531 C 150.832031 150.445312 150.773438 149.246094 150.773438 148.042969 C 150.773438 146.839844 150.832031 145.636719 150.949219 144.441406 C 151.070312 143.242188 151.246094 142.054688 151.480469 140.875 C 151.714844 139.691406 152.007812 138.527344 152.355469 137.375 C 152.707031 136.222656 153.109375 135.09375 153.570312 133.980469 C 154.03125 132.867188 154.546875 131.78125 155.113281 130.71875 C 155.679688 129.660156 156.296875 128.628906 156.964844 127.628906 C 157.636719 126.628906 158.351562 125.660156 159.113281 124.730469 C 159.878906 123.800781 160.683594 122.910156 161.535156 122.058594 C 162.386719 121.207031 163.277344 120.402344 164.207031 119.636719 C 165.136719 118.875 166.101562 118.160156 167.105469 117.488281 C 168.105469 116.820312 169.136719 116.203125 170.195312 115.636719 C 171.257812 115.070312 172.34375 114.554688 173.457031 114.09375 C 174.570312 113.632812 175.699219 113.230469 176.851562 112.878906 C 178.003906 112.53125 179.167969 112.238281 180.347656 112.003906 C 181.53125 111.769531 182.71875 111.59375 183.917969 111.472656 C 185.113281 111.355469 186.316406 111.296875 187.519531 111.296875 Z M 187.519531 111.296875 "/></g></svg>