<svg xmlns="http://www.w3.org/2000/svg" xmlns:xlink="http://www.w3.org/1999/xlink" width="500" zoomAndPan="magnify" viewBox="0 0 375 374.999991" height="500" preserveAspectRatio="xMidYMid meet" version="1.0"><path fill="#ffffff" d="M 187.5 0 C 83.964844 0 0 83.964844 0 187.5 C 0 291.035156 83.964844 375 187.5 375 C 291.035156 375 375 291.035156 375 187.5 C 375 83.964844 291.035156 0 187.5 0 Z M 300.292969 276.445312 C 296.953125 284.648438 279.375 305.097656 249.492188 304.6875 C 217.96875 305.273438 159.726562 275.097656 125.683594 238.652344 C 91.464844 199.628906 68.730469 151.816406 70.429688 122.402344 C 72.1875 91.582031 90.644531 78.808594 98.496094 74.707031 C 107.988281 69.785156 117.890625 68.90625 123.808594 72.539062 C 136.933594 80.683594 149.296875 135.996094 149.648438 142.734375 C 149.941406 146.835938 146.191406 152.753906 138.398438 161.074219 C 127.03125 173.085938 139.921875 187.382812 146.835938 197.8125 C 159.023438 215.273438 175.722656 228.632812 194.238281 239.003906 C 200.566406 242.578125 208.476562 241.640625 213.925781 236.601562 C 222.246094 228.808594 228.164062 225.058594 232.207031 225.351562 C 239.003906 225.703125 294.316406 238.007812 302.460938 251.191406 C 306.09375 257.109375 305.214844 267.011719 300.292969 276.445312 Z M 300.292969 276.445312 " fill-opacity="1" fill-rule="nonzero"/></svg>